<?xml version="1.0" encoding="UTF-8"?>
<svg id="Layer_2" data-name="Layer 2" xmlns="http://www.w3.org/2000/svg" viewBox="0 0 51 41">
  <defs>
    <style>
      .cls-1 {
        fill: #fff;
      }

      .cls-2 {
        fill: #29abe2;
      }
    </style>
  </defs>
  <g id="Layer_10" data-name="Layer 10">
    <g>
      <path class="cls-1" d="m9.31,41H0L25.52.23c.2-.31.67-.31.87,0l12.28,20.41h-9.6l-3.12-6.43-15.6,26.2c-.21.36-.61.58-1.04.58Z"/>
      <path class="cls-2" d="m15.57,41h35.43l-4.02-6.64c-.25-.41-.7-.66-1.19-.66h-18.3c-.21,0-.36-.21-.27-.39l.83-2c.09-.21.3-.34.54-.34h14.28c.91,0,1.49-.93,1.05-1.69l-3.62-6.18h-15.87c-.45,0-.86.23-1.07.61l-8.87,15.55c-.45.79.15,1.75,1.09,1.75Z"/>
    </g>
  </g>
</svg>